<?xml version="1.0" encoding="UTF-8" standalone="no"?><!DOCTYPE svg PUBLIC "-//W3C//DTD SVG 1.1//EN" "http://www.w3.org/Graphics/SVG/1.1/DTD/svg11.dtd"><svg width="100%" height="100%" viewBox="0 0 2222 1945" version="1.1" xmlns="http://www.w3.org/2000/svg" xmlns:xlink="http://www.w3.org/1999/xlink" xml:space="preserve" xmlns:serif="http://www.serif.com/" style="fill-rule:evenodd;clip-rule:evenodd;stroke-linecap:round;stroke-linejoin:round;stroke-miterlimit:1.5;"><g><g><path d="M905.05,736.438c1.931,53.908 28.333,113.833 45,120c16.666,6.166 42.222,-53.278 55,-83" style="fill:none;stroke:#000;stroke-width:30px;"/><path d="M980.9,630.438c12.618,-3.637 61.175,-4.534 51.075,9c-11.117,14.895 -108.413,82.5 -116.925,81c-8.513,-1.5 43.07,-83.435 65.85,-90Z" style="stroke:#000;stroke-width:30px;"/><path d="M985.05,683.438c2.448,75.065 38.776,113.873 98,148" style="fill:none;stroke:#000;stroke-width:30px;"/></g><g><path d="M908.924,1414.1c0,-18.214 -6.924,-40.096 -6.924,-40.096c0,0 -31.155,83.604 -78,90c-71.691,9.789 -91.06,-76.923 -137,-77c-45.706,-0.077 -94.639,47.077 -95.95,48c1.452,88.701 65.848,142.078 154.892,142.078c89.952,0 162.982,-73.03 162.982,-162.982Z" style="fill:#00dd3d;stroke:#000;stroke-width:20px;"/><path d="M762.05,1245.44c0,0 -25.834,-149 -27,-194c-0.679,-26.187 20,-76 20,-76c-20,25.258 -43.266,41.777 -69.613,50.045c-28.044,8.801 -59.58,8.256 -94.387,-1.045c0,0 43.023,30.561 51,54c13.5,39.666 30,184 30,184" style="fill:none;stroke:#000;stroke-width:30px;"/><path d="M739.763,915.438c3.9,-14.593 11.7,-43.779 0,-60c-14.785,-20.5 -79.094,-30.667 -88.713,-63c-9.619,-32.334 53.757,-92.327 31,-131c-50.229,-85.358 -123.788,-63.334 -167,-89c-32.348,-19.213 -72.298,-49.738 -92.274,-65" style="fill:none;stroke:#000;stroke-width:30px;"/><path d="M609.05,953.438c33.474,-25.584 31.542,-83.939 -49,-90c-34.167,-2.571 -59.834,-8.5 -68,-25c-8.167,-16.5 61.711,-53.991 20,-73c-41.972,-19.128 -223.976,-12.35 -296,-71" style="fill:none;stroke:#000;stroke-width:30px;"/><path d="M754.05,975.438c-47.785,-27.365 -141.114,-2.986 -163,47" style="fill:none;stroke:#000;stroke-width:30px;"/><path d="M759,1250c4.922,0.51 13.69,3.229 18.472,4.168c74.885,14.703 131.452,80.762 131.452,159.928c0,89.952 -73.03,162.982 -162.982,162.982c-89.951,0 -162.981,-73.03 -162.981,-162.982c0,-64.739 37.828,-120.713 92.568,-147.005" style="fill:none;stroke:#000;stroke-width:20px;"/></g><g><path d="M1254.86,645.438c65.126,0 118,52.874 118,118c0,65.126 -52.874,118 -118,118c-65.126,0 -118,-52.874 -118,-118c0,-65.126 52.874,-118 118,-118" style="fill:none;stroke:#000;stroke-width:30px;"/><path d="M1294.22,652.198c45.785,16.177 78.641,59.902 78.641,111.24c0,65.126 -52.874,118 -118,118c-65.126,0 -118,-52.874 -118,-118c0,-24.062 7.217,-46.451 19.629,-65.122c-4.265,28.957 10.318,56.044 49.93,63.122c30.049,5.369 48.433,3.486 70.634,-11c34.436,-22.47 37.413,-52.846 28,-85c-1.45,-4.952 -9.973,-12.467 -10.834,-13.24Z" style="stroke:#000;stroke-width:30px;"/></g><g id="Layer1"><g><path d="M1191.05,1522.44c273.216,111.993 551.14,54.165 631,17.038c57.359,-26.666 127.609,-91.103 154,-146.038c17.418,-36.259 23.764,-80.301 29,-121c10.037,-78.027 -64.075,-238.061 -209,-276c-33.561,-8.786 -52.628,-57.669 -60,-109c-10.218,-71.143 -3.018,-154.995 -26,-215c-58.459,-152.631 -254.631,-276.509 -389,-268c-60.676,3.842 -164.637,40.745 -230,91c-68.5,52.666 -153.285,169.162 -181,225c-56.219,113.263 -71.093,270.03 -58,357c14.664,97.41 35.408,152.682 109,253c88.059,120.039 204.966,181.738 230,192Z" style="fill:none;stroke:#000;stroke-width:30px;"/><path d="M1805.05,1157.44c19.277,113.786 -30.472,203.158 -95,276" style="fill:none;stroke:#000;stroke-width:30px;"/><path d="M1673.05,1121.44c4.82,116.766 -60.86,207.38 -153.485,288" style="fill:none;stroke:#000;stroke-width:30px;"/><path d="M1204.92,1171.44c-23.598,8.542 -70.794,25.627 -98.866,56c-15.999,17.309 69.334,65.77 112,90" style="fill:none;stroke:#000;stroke-width:30px;"/><path d="M1536.13,472.827c42.757,-24.719 128.271,-74.158 155.925,-60.389c27.654,13.768 13,111.166 10,143c-1.738,18.441 -19.246,38.147 -28,48" style="fill:none;stroke:#000;stroke-width:30px;"/><path d="M1438.45,424.09c40.437,-23.739 121.31,-71.215 147.596,-66.652c19.841,3.444 14.614,53.814 12,79" style="fill:none;stroke:#000;stroke-width:30px;"/><path d="M855.05,928.438c63.13,53.46 179.935,157.295 336,138c112.477,-13.907 294.046,-67.882 341,-144c51.205,-83.012 16.884,-205.698 -24,-282c-58.235,-108.684 -219.517,-210.45 -286,-210" style="fill:none;stroke:#000;stroke-width:30px;"/><path d="M848.043,1049.44c-33.381,-2.886 -111.518,24.053 -108.176,32.262l10.183,75.738c-0.295,-7.715 82.519,2.508 124.361,19" style="fill:none;stroke:#000;stroke-width:30px;"/></g></g></g></svg>